<svg width="20" height="21" viewBox="0 0 20 21" fill="none" xmlns="http://www.w3.org/2000/svg">
<path d="M2.91602 8.83317C2.91602 5.69047 2.91602 4.11913 3.95335 3.14281C4.99067 2.1665 6.66023 2.1665 9.99935 2.1665H10.6433C13.3609 2.1665 14.7198 2.1665 15.6634 2.83137C15.9338 3.02186 16.1738 3.24777 16.3763 3.50225C17.0827 4.3904 17.0827 5.6693 17.0827 8.22711V10.3483C17.0827 12.8177 17.0827 14.0523 16.6919 15.0383C16.0637 16.6237 14.7351 17.8741 13.0507 18.4653C12.003 18.8332 10.6912 18.8332 8.06753 18.8332C6.56831 18.8332 5.8187 18.8332 5.22 18.623C4.25751 18.2852 3.49831 17.5706 3.13932 16.6648C2.91602 16.1013 2.91602 15.3958 2.91602 13.9847V8.83317Z" stroke="#6B7280" stroke-width="1.5" stroke-linejoin="round"/>
<path d="M17.0833 10.5C17.0833 12.0341 15.8397 13.2777 14.3056 13.2777C13.7508 13.2777 13.0967 13.1806 12.5572 13.3251C12.0779 13.4535 11.7035 13.8279 11.5751 14.3072C11.4306 14.8467 11.5277 15.5008 11.5277 16.0556C11.5277 17.5897 10.2841 18.8333 8.75 18.8333" stroke="#6B7280" stroke-width="1.5" stroke-linecap="round" stroke-linejoin="round"/>
<path d="M6.66602 6.3335H12.4993" stroke="#6B7280" stroke-width="1.5" stroke-linecap="round" stroke-linejoin="round"/>
<path d="M6.66602 9.6665H9.16602" stroke="#6B7280" stroke-width="1.5" stroke-linecap="round" stroke-linejoin="round"/>
</svg>
