<svg width="20" height="21" viewBox="0 0 20 21" fill="none" xmlns="http://www.w3.org/2000/svg">
<path d="M18.3327 10.5C18.3327 7.37522 18.3327 5.81283 17.5369 4.71756C17.2799 4.36383 16.9688 4.05276 16.6151 3.79576C15.5198 3 13.9574 3 10.8327 3H9.16602C6.04124 3 4.47885 3 3.38357 3.79576C3.02985 4.05276 2.71877 4.36383 2.46177 4.71756C1.66602 5.81283 1.66602 7.37522 1.66602 10.5C1.66602 13.6247 1.66602 15.1872 2.46177 16.2824C2.71877 16.6362 3.02985 16.9472 3.38357 17.2042C4.47885 18 6.04124 18 9.16602 18H10.8327C13.9574 18 15.5198 18 16.6151 17.2042C16.9688 16.9472 17.2799 16.6362 17.5369 16.2824C18.3327 15.1872 18.3327 13.6247 18.3327 10.5Z" stroke="#6B7280" stroke-width="1.5" stroke-linejoin="round"/>
<path d="M12.084 3.4165V17.5832" stroke="#6B7280" stroke-width="1.5" stroke-linejoin="round"/>
<path d="M15.834 6.3335H14.584" stroke="#6B7280" stroke-width="1.5" stroke-linecap="round" stroke-linejoin="round"/>
<path d="M15.834 9.6665H14.584" stroke="#6B7280" stroke-width="1.5" stroke-linecap="round" stroke-linejoin="round"/>
<path d="M6.66602 8.8335L7.68813 9.7145C8.11783 10.0848 8.33268 10.2701 8.33268 10.5002C8.33268 10.7302 8.11783 10.9155 7.68813 11.2858L6.66602 12.1668" stroke="#6B7280" stroke-width="1.5" stroke-linecap="round" stroke-linejoin="round"/>
</svg>
