<svg xmlns="http://www.w3.org/2000/svg" width="1200" height="675" viewBox="0 0 1200 675" role="img" aria-label="AI-Native Mobile &amp; Web Development illustration">
  <defs>
    <linearGradient id="bg" x1="0" y1="0" x2="1" y2="1">
      <stop offset="0%" stop-color="#0f172a"/>
      <stop offset="100%" stop-color="#0284c7"/>
    </linearGradient>
  </defs>

  <rect width="1200" height="675" fill="url(#bg)"/>
  <circle cx="120" cy="110" r="220" fill="#ffffff" fill-opacity="0.05"/>
  <circle cx="1080" cy="580" r="180" fill="#ffffff" fill-opacity="0.05"/>
  <rect x="70" y="85" width="500" height="505" rx="26" fill="#ffffff" fill-opacity="0.07"/>

  <text x="108" y="160" font-family="Segoe UI, Arial, sans-serif" font-size="26" font-weight="700" fill="#dbeafe" opacity="0.95">MAGATH CONSULTANTS</text>
  <text x="108" y="236" font-family="Segoe UI, Arial, sans-serif" font-size="52" font-weight="800" fill="#ffffff">AI-Native Mobile &amp;amp;</text>
  <text x="108" y="296" font-family="Segoe UI, Arial, sans-serif" font-size="52" font-weight="800" fill="#ffffff">Web Development</text>
  <text x="108" y="350" font-family="Segoe UI, Arial, sans-serif" font-size="24" font-weight="500" fill="#dbeafe">Service-specific visual concept</text>

  <rect x="108" y="398" width="145" height="36" rx="18" fill="#7dd3fc" fill-opacity="0.35"/>
  <text x="126" y="422" font-family="Segoe UI, Arial, sans-serif" font-size="16" font-weight="700" fill="#ffffff">AI Native UX</text>

  <rect x="268" y="398" width="145" height="36" rx="18" fill="#7dd3fc" fill-opacity="0.25"/>
  <text x="286" y="422" font-family="Segoe UI, Arial, sans-serif" font-size="16" font-weight="700" fill="#ffffff">Web + Mobile</text>

  <rect x="428" y="398" width="145" height="36" rx="18" fill="#7dd3fc" fill-opacity="0.18"/>
  <text x="446" y="422" font-family="Segoe UI, Arial, sans-serif" font-size="16" font-weight="700" fill="#ffffff">Copilot Flows</text>

  <rect x="645" y="130" width="390" height="300" rx="16" fill="#0b2340" stroke="#7dd3fc" stroke-opacity="0.55"/>
<rect x="675" y="165" width="120" height="230" rx="16" fill="#fff" fill-opacity="0.16"/>
<rect x="700" y="194" width="70" height="10" rx="5" fill="#fff" fill-opacity="0.72"/>
<rect x="700" y="214" width="70" height="50" rx="8" fill="#38bdf8" fill-opacity="0.55"/>
<rect x="815" y="165" width="190" height="230" rx="16" fill="#fff" fill-opacity="0.12"/>
<rect x="842" y="197" width="130" height="12" rx="6" fill="#fff" fill-opacity="0.72"/>
<rect x="842" y="221" width="150" height="58" rx="10" fill="#0ea5e9" fill-opacity="0.45"/>
<rect x="842" y="292" width="110" height="14" rx="7" fill="#22d3ee" fill-opacity="0.68"/>
</svg>
