<svg xmlns="http://www.w3.org/2000/svg" width="1200" height="675" viewBox="0 0 1200 675" role="img" aria-label="Architecture Design Case Study illustration">
  <defs>
    <linearGradient id="bg" x1="0" y1="0" x2="1" y2="1">
      <stop offset="0%" stop-color="#1f2937"/>
      <stop offset="100%" stop-color="#334155"/>
    </linearGradient>
  </defs>

  <rect width="1200" height="675" fill="url(#bg)"/>
  <circle cx="120" cy="110" r="220" fill="#ffffff" fill-opacity="0.05"/>
  <circle cx="1080" cy="580" r="180" fill="#ffffff" fill-opacity="0.05"/>
  <rect x="70" y="85" width="500" height="505" rx="26" fill="#ffffff" fill-opacity="0.07"/>

  <text x="108" y="160" font-family="Segoe UI, Arial, sans-serif" font-size="26" font-weight="700" fill="#dbeafe" opacity="0.95">MAGATH CONSULTANTS</text>
  <text x="108" y="236" font-family="Segoe UI, Arial, sans-serif" font-size="52" font-weight="800" fill="#ffffff">Architecture Design Case</text>
  <text x="108" y="296" font-family="Segoe UI, Arial, sans-serif" font-size="52" font-weight="800" fill="#ffffff">Study</text>
  <text x="108" y="350" font-family="Segoe UI, Arial, sans-serif" font-size="24" font-weight="500" fill="#dbeafe">Implementation scenario and architecture</text>

  <rect x="108" y="398" width="145" height="36" rx="18" fill="#cbd5e1" fill-opacity="0.35"/>
  <text x="126" y="422" font-family="Segoe UI, Arial, sans-serif" font-size="16" font-weight="700" fill="#ffffff">Architecture</text>

  <rect x="268" y="398" width="145" height="36" rx="18" fill="#cbd5e1" fill-opacity="0.25"/>
  <text x="286" y="422" font-family="Segoe UI, Arial, sans-serif" font-size="16" font-weight="700" fill="#ffffff">Scalability</text>

  <rect x="428" y="398" width="145" height="36" rx="18" fill="#cbd5e1" fill-opacity="0.18"/>
  <text x="446" y="422" font-family="Segoe UI, Arial, sans-serif" font-size="16" font-weight="700" fill="#ffffff">Reliability</text>

  <rect x="650" y="130" width="380" height="300" rx="16" fill="#1f2937" stroke="#cbd5e1" stroke-opacity="0.5"/>
<rect x="700" y="175" width="90" height="56" rx="8" fill="#94a3b8" fill-opacity="0.65"/>
<rect x="840" y="175" width="90" height="56" rx="8" fill="#94a3b8" fill-opacity="0.65"/>
<rect x="770" y="280" width="90" height="56" rx="8" fill="#64748b" fill-opacity="0.75"/>
<line x1="790" y1="203" x2="840" y2="203" stroke="#e2e8f0" stroke-width="3"/>
<line x1="745" y1="231" x2="815" y2="280" stroke="#e2e8f0" stroke-width="3"/>
<line x1="885" y1="231" x2="815" y2="280" stroke="#e2e8f0" stroke-width="3"/>
</svg>
