<svg xmlns="http://www.w3.org/2000/svg" width="1200" height="675" viewBox="0 0 1200 675" role="img" aria-label="AWS &amp; Cloud Impact illustration">
  <defs>
    <linearGradient id="bg" x1="0" y1="0" x2="1" y2="1">
      <stop offset="0%" stop-color="#1f2937"/>
      <stop offset="100%" stop-color="#f59e0b"/>
    </linearGradient>
  </defs>

  <rect width="1200" height="675" fill="url(#bg)"/>
  <circle cx="120" cy="110" r="220" fill="#ffffff" fill-opacity="0.05"/>
  <circle cx="1080" cy="580" r="180" fill="#ffffff" fill-opacity="0.05"/>
  <rect x="70" y="85" width="500" height="505" rx="26" fill="#ffffff" fill-opacity="0.07"/>

  <text x="108" y="160" font-family="Segoe UI, Arial, sans-serif" font-size="26" font-weight="700" fill="#dbeafe" opacity="0.95">MAGATH CONSULTANTS</text>
  <text x="108" y="236" font-family="Segoe UI, Arial, sans-serif" font-size="52" font-weight="800" fill="#ffffff">AWS &amp;amp; Cloud Impact</text>
  <text x="108" y="296" font-family="Segoe UI, Arial, sans-serif" font-size="52" font-weight="800" fill="#ffffff"></text>
  <text x="108" y="350" font-family="Segoe UI, Arial, sans-serif" font-size="24" font-weight="500" fill="#dbeafe">Business and delivery outcomes</text>

  <rect x="108" y="398" width="145" height="36" rx="18" fill="#fde68a" fill-opacity="0.35"/>
  <text x="126" y="422" font-family="Segoe UI, Arial, sans-serif" font-size="16" font-weight="700" fill="#ffffff">Cloud Infra</text>

  <rect x="268" y="398" width="145" height="36" rx="18" fill="#fde68a" fill-opacity="0.25"/>
  <text x="286" y="422" font-family="Segoe UI, Arial, sans-serif" font-size="16" font-weight="700" fill="#ffffff">Scalability</text>

  <rect x="428" y="398" width="145" height="36" rx="18" fill="#fde68a" fill-opacity="0.18"/>
  <text x="446" y="422" font-family="Segoe UI, Arial, sans-serif" font-size="16" font-weight="700" fill="#ffffff">Reliability</text>

  <path d="M740 300 C730 250 770 220 815 235 C840 190 915 190 940 240 C990 235 1020 270 1016 315 C1014 355 980 380 944 380 L780 380 C746 380 714 358 714 322 C714 308 723 296 740 300 Z" fill="#bfdbfe" fill-opacity="0.75" stroke="#fff" stroke-opacity="0.5"/>
<rect x="640" y="150" width="300" height="90" rx="12" fill="#ffffff" fill-opacity="0.14"/>
<rect x="670" y="180" width="130" height="14" rx="7" fill="#ffffff" fill-opacity="0.75"/>
<rect x="670" y="205" width="220" height="10" rx="5" fill="#ffffff" fill-opacity="0.5"/>
<circle cx="770" cy="320" r="14" fill="#60a5fa"/>
<circle cx="840" cy="320" r="14" fill="#22d3ee"/>
<circle cx="910" cy="320" r="14" fill="#34d399"/>
</svg>
