<svg xmlns="http://www.w3.org/2000/svg" width="1200" height="675" viewBox="0 0 1200 675" role="img" aria-label="Computer Vision illustration">
  <defs>
    <linearGradient id="bg" x1="0" y1="0" x2="1" y2="1">
      <stop offset="0%" stop-color="#1f2937"/>
      <stop offset="100%" stop-color="#4338ca"/>
    </linearGradient>
  </defs>

  <rect width="1200" height="675" fill="url(#bg)"/>
  <circle cx="120" cy="110" r="220" fill="#ffffff" fill-opacity="0.05"/>
  <circle cx="1080" cy="580" r="180" fill="#ffffff" fill-opacity="0.05"/>
  <rect x="70" y="85" width="500" height="505" rx="26" fill="#ffffff" fill-opacity="0.07"/>

  <text x="108" y="160" font-family="Segoe UI, Arial, sans-serif" font-size="26" font-weight="700" fill="#dbeafe" opacity="0.95">MAGATH CONSULTANTS</text>
  <text x="108" y="236" font-family="Segoe UI, Arial, sans-serif" font-size="52" font-weight="800" fill="#ffffff">Computer Vision</text>
  <text x="108" y="296" font-family="Segoe UI, Arial, sans-serif" font-size="52" font-weight="800" fill="#ffffff"></text>
  <text x="108" y="350" font-family="Segoe UI, Arial, sans-serif" font-size="24" font-weight="500" fill="#dbeafe">Service-specific visual concept</text>

  <rect x="108" y="398" width="145" height="36" rx="18" fill="#a5b4fc" fill-opacity="0.35"/>
  <text x="126" y="422" font-family="Segoe UI, Arial, sans-serif" font-size="16" font-weight="700" fill="#ffffff">Object Detection</text>

  <rect x="268" y="398" width="145" height="36" rx="18" fill="#a5b4fc" fill-opacity="0.25"/>
  <text x="286" y="422" font-family="Segoe UI, Arial, sans-serif" font-size="16" font-weight="700" fill="#ffffff">Vision AI</text>

  <rect x="428" y="398" width="145" height="36" rx="18" fill="#a5b4fc" fill-opacity="0.18"/>
  <text x="446" y="422" font-family="Segoe UI, Arial, sans-serif" font-size="16" font-weight="700" fill="#ffffff">Scene Analysis</text>

  <rect x="630" y="120" width="420" height="320" rx="20" fill="#0b1220" stroke="#93c5fd" stroke-opacity="0.5"/>
<rect x="664" y="156" width="352" height="248" rx="12" fill="#111827"/>
<circle cx="840" cy="280" r="68" fill="none" stroke="#67e8f9" stroke-width="4"/>
<circle cx="840" cy="280" r="26" fill="none" stroke="#22d3ee" stroke-width="4"/>
<rect x="710" y="210" width="90" height="66" rx="10" fill="none" stroke="#86efac" stroke-width="3"/>
<rect x="880" y="238" width="92" height="72" rx="10" fill="none" stroke="#fde68a" stroke-width="3"/>
<line x1="755" y1="243" x2="840" y2="280" stroke="#60a5fa" stroke-width="2"/>
<line x1="926" y1="273" x2="840" y2="280" stroke="#60a5fa" stroke-width="2"/>
<text x="690" y="388" font-family="Segoe UI, Arial, sans-serif" font-size="18" fill="#c7d2fe">Vision AI Detection Layer</text>
</svg>
