<svg xmlns="http://www.w3.org/2000/svg" width="1200" height="675" viewBox="0 0 1200 675" role="img" aria-label="CRM Systems illustration">
  <defs>
    <linearGradient id="bg" x1="0" y1="0" x2="1" y2="1">
      <stop offset="0%" stop-color="#102a43"/>
      <stop offset="100%" stop-color="#2f80ed"/>
    </linearGradient>
  </defs>

  <rect width="1200" height="675" fill="url(#bg)"/>
  <circle cx="120" cy="110" r="220" fill="#ffffff" fill-opacity="0.05"/>
  <circle cx="1080" cy="580" r="180" fill="#ffffff" fill-opacity="0.05"/>
  <rect x="70" y="85" width="500" height="505" rx="26" fill="#ffffff" fill-opacity="0.07"/>

  <text x="108" y="160" font-family="Segoe UI, Arial, sans-serif" font-size="26" font-weight="700" fill="#dbeafe" opacity="0.95">MAGATH CONSULTANTS</text>
  <text x="108" y="236" font-family="Segoe UI, Arial, sans-serif" font-size="52" font-weight="800" fill="#ffffff">CRM Systems</text>
  <text x="108" y="296" font-family="Segoe UI, Arial, sans-serif" font-size="52" font-weight="800" fill="#ffffff"></text>
  <text x="108" y="350" font-family="Segoe UI, Arial, sans-serif" font-size="24" font-weight="500" fill="#dbeafe">Service-specific visual concept</text>

  <rect x="108" y="398" width="145" height="36" rx="18" fill="#93c5fd" fill-opacity="0.35"/>
  <text x="126" y="422" font-family="Segoe UI, Arial, sans-serif" font-size="16" font-weight="700" fill="#ffffff">Leads</text>

  <rect x="268" y="398" width="145" height="36" rx="18" fill="#93c5fd" fill-opacity="0.25"/>
  <text x="286" y="422" font-family="Segoe UI, Arial, sans-serif" font-size="16" font-weight="700" fill="#ffffff">Sales Ops</text>

  <rect x="428" y="398" width="145" height="36" rx="18" fill="#93c5fd" fill-opacity="0.18"/>
  <text x="446" y="422" font-family="Segoe UI, Arial, sans-serif" font-size="16" font-weight="700" fill="#ffffff">Customer 360</text>

  <rect x="650" y="130" width="380" height="300" rx="16" fill="#102a43" stroke="#93c5fd" stroke-opacity="0.5"/>
<rect x="685" y="170" width="310" height="70" rx="12" fill="#fff" fill-opacity="0.14"/>
<circle cx="725" cy="205" r="18" fill="#60a5fa"/>
<rect x="755" y="195" width="120" height="12" rx="6" fill="#fff" fill-opacity="0.75"/>
<rect x="755" y="215" width="80" height="10" rx="5" fill="#fff" fill-opacity="0.5"/>
<rect x="685" y="260" width="145" height="130" rx="12" fill="#3b82f6" fill-opacity="0.52"/>
<rect x="850" y="260" width="145" height="130" rx="12" fill="#60a5fa" fill-opacity="0.45"/>
</svg>
