<svg xmlns="http://www.w3.org/2000/svg" width="1200" height="675" viewBox="0 0 1200 675" role="img" aria-label="GIS 3D Development and Modeling case study illustration">
  <defs>
    <linearGradient id="bg" x1="0" y1="0" x2="1" y2="1">
      <stop offset="0%" stop-color="#082f49"/>
      <stop offset="100%" stop-color="#115e59"/>
    </linearGradient>
  </defs>

  <rect width="1200" height="675" fill="url(#bg)"/>
  <circle cx="120" cy="110" r="220" fill="#ffffff" fill-opacity="0.05"/>
  <circle cx="1080" cy="580" r="180" fill="#ffffff" fill-opacity="0.05"/>
  <rect x="70" y="85" width="500" height="505" rx="26" fill="#ffffff" fill-opacity="0.07"/>

  <text x="108" y="160" font-family="Segoe UI, Arial, sans-serif" font-size="26" font-weight="700" fill="#cffafe" opacity="0.95">MAGATH CONSULTANTS</text>
  <text x="108" y="236" font-family="Segoe UI, Arial, sans-serif" font-size="52" font-weight="800" fill="#ffffff">GIS - 3D Modeling</text>
  <text x="108" y="296" font-family="Segoe UI, Arial, sans-serif" font-size="52" font-weight="800" fill="#ffffff">Case Study</text>
  <text x="108" y="350" font-family="Segoe UI, Arial, sans-serif" font-size="24" font-weight="500" fill="#cffafe">Urban digital twin and infrastructure simulation</text>

  <rect x="108" y="398" width="145" height="36" rx="18" fill="#67e8f9" fill-opacity="0.35"/>
  <text x="126" y="422" font-family="Segoe UI, Arial, sans-serif" font-size="16" font-weight="700" fill="#ffffff">Smart City</text>

  <rect x="268" y="398" width="145" height="36" rx="18" fill="#67e8f9" fill-opacity="0.25"/>
  <text x="286" y="422" font-family="Segoe UI, Arial, sans-serif" font-size="16" font-weight="700" fill="#ffffff">Utilities</text>

  <rect x="428" y="398" width="145" height="36" rx="18" fill="#67e8f9" fill-opacity="0.18"/>
  <text x="446" y="422" font-family="Segoe UI, Arial, sans-serif" font-size="16" font-weight="700" fill="#ffffff">Analytics</text>

  <rect x="650" y="135" width="380" height="305" rx="18" fill="#07293c" stroke="#a5f3fc" stroke-opacity="0.45"/>
  <rect x="688" y="174" width="304" height="228" rx="14" fill="#ffffff" fill-opacity="0.06"/>
  <path d="M718 362 L760 266 L824 300 L870 230 L930 270 L964 210 L964 362 Z" fill="#22d3ee" fill-opacity="0.3"/>
  <path d="M718 362 L754 322 L806 340 L850 292 L912 318 L964 282 L964 362 Z" fill="#34d399" fill-opacity="0.35"/>
  <rect x="730" y="198" width="74" height="36" rx="10" fill="#67e8f9" fill-opacity="0.35"/>
  <rect x="822" y="198" width="96" height="36" rx="10" fill="#5eead4" fill-opacity="0.25"/>
  <rect x="730" y="378" width="140" height="10" rx="5" fill="#ffffff" fill-opacity="0.6"/>
  <rect x="884" y="378" width="82" height="10" rx="5" fill="#ffffff" fill-opacity="0.35"/>
</svg>