<svg xmlns="http://www.w3.org/2000/svg" width="1200" height="675" viewBox="0 0 1200 675" role="img" aria-label="IoT Services illustration">
  <defs>
    <linearGradient id="bg" x1="0" y1="0" x2="1" y2="1">
      <stop offset="0%" stop-color="#111827"/>
      <stop offset="100%" stop-color="#1d4ed8"/>
    </linearGradient>
  </defs>

  <rect width="1200" height="675" fill="url(#bg)"/>
  <circle cx="120" cy="110" r="220" fill="#ffffff" fill-opacity="0.05"/>
  <circle cx="1080" cy="580" r="180" fill="#ffffff" fill-opacity="0.05"/>
  <rect x="70" y="85" width="500" height="505" rx="26" fill="#ffffff" fill-opacity="0.07"/>

  <text x="108" y="160" font-family="Segoe UI, Arial, sans-serif" font-size="26" font-weight="700" fill="#dbeafe" opacity="0.95">MAGATH CONSULTANTS</text>
  <text x="108" y="236" font-family="Segoe UI, Arial, sans-serif" font-size="52" font-weight="800" fill="#ffffff">IoT Services</text>
  <text x="108" y="296" font-family="Segoe UI, Arial, sans-serif" font-size="52" font-weight="800" fill="#ffffff"></text>
  <text x="108" y="350" font-family="Segoe UI, Arial, sans-serif" font-size="24" font-weight="500" fill="#dbeafe">Connected devices, edge control, and live telemetry</text>

  <rect x="108" y="398" width="145" height="36" rx="18" fill="#93c5fd" fill-opacity="0.35"/>
  <text x="126" y="422" font-family="Segoe UI, Arial, sans-serif" font-size="16" font-weight="700" fill="#ffffff">Sensors</text>

  <rect x="268" y="398" width="145" height="36" rx="18" fill="#93c5fd" fill-opacity="0.25"/>
  <text x="286" y="422" font-family="Segoe UI, Arial, sans-serif" font-size="16" font-weight="700" fill="#ffffff">Edge</text>

  <rect x="428" y="398" width="145" height="36" rx="18" fill="#93c5fd" fill-opacity="0.18"/>
  <text x="446" y="422" font-family="Segoe UI, Arial, sans-serif" font-size="16" font-weight="700" fill="#ffffff">Telemetry</text>

  <rect x="650" y="135" width="380" height="305" rx="18" fill="#0b1730" stroke="#bfdbfe" stroke-opacity="0.45"/>
  <circle cx="840" cy="292" r="84" fill="#1d4ed8" fill-opacity="0.18" stroke="#93c5fd" stroke-width="3" stroke-dasharray="10 10"/>
  <circle cx="840" cy="292" r="36" fill="#60a5fa"/>
  <circle cx="742" cy="205" r="20" fill="#22d3ee"/>
  <circle cx="950" cy="220" r="20" fill="#38bdf8"/>
  <circle cx="736" cy="372" r="20" fill="#34d399"/>
  <circle cx="962" cy="356" r="20" fill="#818cf8"/>
  <line x1="742" y1="205" x2="840" y2="292" stroke="#dbeafe" stroke-width="4" stroke-opacity="0.75"/>
  <line x1="950" y1="220" x2="840" y2="292" stroke="#dbeafe" stroke-width="4" stroke-opacity="0.75"/>
  <line x1="736" y1="372" x2="840" y2="292" stroke="#dbeafe" stroke-width="4" stroke-opacity="0.75"/>
  <line x1="962" y1="356" x2="840" y2="292" stroke="#dbeafe" stroke-width="4" stroke-opacity="0.75"/>
  <rect x="720" y="408" width="168" height="10" rx="5" fill="#ffffff" fill-opacity="0.45"/>
  <rect x="902" y="408" width="84" height="10" rx="5" fill="#ffffff" fill-opacity="0.22"/>
</svg>