<svg xmlns="http://www.w3.org/2000/svg" width="1200" height="675" viewBox="0 0 1200 675" role="img" aria-label="IoT Services case study illustration">
  <defs>
    <linearGradient id="bg" x1="0" y1="0" x2="1" y2="1">
      <stop offset="0%" stop-color="#0f172a"/>
      <stop offset="100%" stop-color="#0369a1"/>
    </linearGradient>
  </defs>

  <rect width="1200" height="675" fill="url(#bg)"/>
  <circle cx="120" cy="110" r="220" fill="#ffffff" fill-opacity="0.05"/>
  <circle cx="1080" cy="580" r="180" fill="#ffffff" fill-opacity="0.05"/>
  <rect x="70" y="85" width="500" height="505" rx="26" fill="#ffffff" fill-opacity="0.07"/>

  <text x="108" y="160" font-family="Segoe UI, Arial, sans-serif" font-size="26" font-weight="700" fill="#dbeafe" opacity="0.95">MAGATH CONSULTANTS</text>
  <text x="108" y="236" font-family="Segoe UI, Arial, sans-serif" font-size="52" font-weight="800" fill="#ffffff">IoT Services</text>
  <text x="108" y="296" font-family="Segoe UI, Arial, sans-serif" font-size="52" font-weight="800" fill="#ffffff">Case Study</text>
  <text x="108" y="350" font-family="Segoe UI, Arial, sans-serif" font-size="24" font-weight="500" fill="#dbeafe">Smart manufacturing and predictive maintenance</text>

  <rect x="108" y="398" width="145" height="36" rx="18" fill="#7dd3fc" fill-opacity="0.35"/>
  <text x="126" y="422" font-family="Segoe UI, Arial, sans-serif" font-size="16" font-weight="700" fill="#ffffff">Factory</text>

  <rect x="268" y="398" width="145" height="36" rx="18" fill="#7dd3fc" fill-opacity="0.25"/>
  <text x="286" y="422" font-family="Segoe UI, Arial, sans-serif" font-size="16" font-weight="700" fill="#ffffff">Sensors</text>

  <rect x="428" y="398" width="145" height="36" rx="18" fill="#7dd3fc" fill-opacity="0.18"/>
  <text x="446" y="422" font-family="Segoe UI, Arial, sans-serif" font-size="16" font-weight="700" fill="#ffffff">Alerts</text>

  <rect x="650" y="135" width="380" height="305" rx="18" fill="#08263d" stroke="#bae6fd" stroke-opacity="0.45"/>
  <rect x="700" y="185" width="280" height="170" rx="16" fill="#ffffff" fill-opacity="0.08"/>
  <rect x="726" y="212" width="52" height="116" rx="8" fill="#38bdf8" fill-opacity="0.55"/>
  <rect x="796" y="242" width="52" height="86" rx="8" fill="#22d3ee" fill-opacity="0.55"/>
  <rect x="866" y="202" width="52" height="126" rx="8" fill="#34d399" fill-opacity="0.55"/>
  <rect x="936" y="226" width="18" height="102" rx="8" fill="#e0f2fe" fill-opacity="0.75"/>
  <path d="M714 388 C756 350 792 340 832 346 C866 352 896 330 930 302 C950 286 970 280 988 284" stroke="#dbeafe" stroke-width="4" fill="none" stroke-opacity="0.75"/>
</svg>