<svg xmlns="http://www.w3.org/2000/svg" width="1200" height="675" viewBox="0 0 1200 675" role="img" aria-label="Monitoring Impact illustration">
  <defs>
    <linearGradient id="bg" x1="0" y1="0" x2="1" y2="1">
      <stop offset="0%" stop-color="#111827"/>
      <stop offset="100%" stop-color="#0891b2"/>
    </linearGradient>
  </defs>

  <rect width="1200" height="675" fill="url(#bg)"/>
  <circle cx="120" cy="110" r="220" fill="#ffffff" fill-opacity="0.05"/>
  <circle cx="1080" cy="580" r="180" fill="#ffffff" fill-opacity="0.05"/>
  <rect x="70" y="85" width="500" height="505" rx="26" fill="#ffffff" fill-opacity="0.07"/>

  <text x="108" y="160" font-family="Segoe UI, Arial, sans-serif" font-size="26" font-weight="700" fill="#dbeafe" opacity="0.95">MAGATH CONSULTANTS</text>
  <text x="108" y="236" font-family="Segoe UI, Arial, sans-serif" font-size="52" font-weight="800" fill="#ffffff">Monitoring Impact</text>
  <text x="108" y="296" font-family="Segoe UI, Arial, sans-serif" font-size="52" font-weight="800" fill="#ffffff"></text>
  <text x="108" y="350" font-family="Segoe UI, Arial, sans-serif" font-size="24" font-weight="500" fill="#dbeafe">Business and delivery outcomes</text>

  <rect x="108" y="398" width="145" height="36" rx="18" fill="#67e8f9" fill-opacity="0.35"/>
  <text x="126" y="422" font-family="Segoe UI, Arial, sans-serif" font-size="16" font-weight="700" fill="#ffffff">Observability</text>

  <rect x="268" y="398" width="145" height="36" rx="18" fill="#67e8f9" fill-opacity="0.25"/>
  <text x="286" y="422" font-family="Segoe UI, Arial, sans-serif" font-size="16" font-weight="700" fill="#ffffff">Alerts</text>

  <rect x="428" y="398" width="145" height="36" rx="18" fill="#67e8f9" fill-opacity="0.18"/>
  <text x="446" y="422" font-family="Segoe UI, Arial, sans-serif" font-size="16" font-weight="700" fill="#ffffff">SLA</text>

  <rect x="650" y="130" width="380" height="300" rx="16" fill="#0b2130" stroke="#67e8f9" stroke-opacity="0.55"/>
<path d="M680 330 L740 330 L770 250 L820 360 L860 300 L900 330 L960 330" fill="none" stroke="#22d3ee" stroke-width="4"/>
<rect x="680" y="170" width="130" height="72" rx="10" fill="#0ea5e9" fill-opacity="0.4"/>
<rect x="830" y="170" width="170" height="72" rx="10" fill="#14b8a6" fill-opacity="0.35"/>
<circle cx="980" cy="190" r="10" fill="#22c55e"/>
<text x="945" y="235" font-family="Segoe UI, Arial, sans-serif" font-size="16" fill="#ccfbf1">System Healthy</text>
</svg>
