<svg xmlns="http://www.w3.org/2000/svg" width="1200" height="675" viewBox="0 0 1200 675" role="img" aria-label="NLP Solutions Case Study illustration">
  <defs>
    <linearGradient id="bg" x1="0" y1="0" x2="1" y2="1">
      <stop offset="0%" stop-color="#1f2937"/>
      <stop offset="100%" stop-color="#7c3aed"/>
    </linearGradient>
  </defs>

  <rect width="1200" height="675" fill="url(#bg)"/>
  <circle cx="120" cy="110" r="220" fill="#ffffff" fill-opacity="0.05"/>
  <circle cx="1080" cy="580" r="180" fill="#ffffff" fill-opacity="0.05"/>
  <rect x="70" y="85" width="500" height="505" rx="26" fill="#ffffff" fill-opacity="0.07"/>

  <text x="108" y="160" font-family="Segoe UI, Arial, sans-serif" font-size="26" font-weight="700" fill="#dbeafe" opacity="0.95">MAGATH CONSULTANTS</text>
  <text x="108" y="236" font-family="Segoe UI, Arial, sans-serif" font-size="52" font-weight="800" fill="#ffffff">NLP Solutions Case Study</text>
  <text x="108" y="296" font-family="Segoe UI, Arial, sans-serif" font-size="52" font-weight="800" fill="#ffffff"></text>
  <text x="108" y="350" font-family="Segoe UI, Arial, sans-serif" font-size="24" font-weight="500" fill="#dbeafe">Implementation scenario and architecture</text>

  <rect x="108" y="398" width="145" height="36" rx="18" fill="#c4b5fd" fill-opacity="0.35"/>
  <text x="126" y="422" font-family="Segoe UI, Arial, sans-serif" font-size="16" font-weight="700" fill="#ffffff">Language AI</text>

  <rect x="268" y="398" width="145" height="36" rx="18" fill="#c4b5fd" fill-opacity="0.25"/>
  <text x="286" y="422" font-family="Segoe UI, Arial, sans-serif" font-size="16" font-weight="700" fill="#ffffff">Chat</text>

  <rect x="428" y="398" width="145" height="36" rx="18" fill="#c4b5fd" fill-opacity="0.18"/>
  <text x="446" y="422" font-family="Segoe UI, Arial, sans-serif" font-size="16" font-weight="700" fill="#ffffff">Semantic Search</text>

  <rect x="650" y="130" width="380" height="300" rx="16" fill="#1e1b4b" stroke="#c4b5fd" stroke-opacity="0.55"/>
<rect x="690" y="175" width="250" height="90" rx="14" fill="#fff" fill-opacity="0.14"/>
<rect x="720" y="205" width="180" height="12" rx="6" fill="#fff" fill-opacity="0.72"/>
<rect x="720" y="227" width="140" height="10" rx="5" fill="#fff" fill-opacity="0.5"/>
<path d="M940 245 L980 275 L940 305" fill="#a78bfa" fill-opacity="0.8"/>
<rect x="690" y="290" width="300" height="96" rx="12" fill="#8b5cf6" fill-opacity="0.35"/>
<text x="718" y="346" font-family="Segoe UI, Arial, sans-serif" font-size="18" fill="#ede9fe">Intent • Entities • Context</text>
</svg>
