<svg xmlns="http://www.w3.org/2000/svg" width="1200" height="675" viewBox="0 0 1200 675" role="img" aria-label="PPC Case Study illustration">
  <defs>
    <linearGradient id="bg" x1="0" y1="0" x2="1" y2="1">
      <stop offset="0%" stop-color="#3f1d0d"/>
      <stop offset="100%" stop-color="#ea580c"/>
    </linearGradient>
  </defs>

  <rect width="1200" height="675" fill="url(#bg)"/>
  <circle cx="120" cy="110" r="220" fill="#ffffff" fill-opacity="0.05"/>
  <circle cx="1080" cy="580" r="180" fill="#ffffff" fill-opacity="0.05"/>
  <rect x="70" y="85" width="500" height="505" rx="26" fill="#ffffff" fill-opacity="0.07"/>

  <text x="108" y="160" font-family="Segoe UI, Arial, sans-serif" font-size="26" font-weight="700" fill="#dbeafe" opacity="0.95">MAGATH CONSULTANTS</text>
  <text x="108" y="236" font-family="Segoe UI, Arial, sans-serif" font-size="52" font-weight="800" fill="#ffffff">PPC Case Study</text>
  <text x="108" y="296" font-family="Segoe UI, Arial, sans-serif" font-size="52" font-weight="800" fill="#ffffff"></text>
  <text x="108" y="350" font-family="Segoe UI, Arial, sans-serif" font-size="24" font-weight="500" fill="#dbeafe">Implementation scenario and architecture</text>

  <rect x="108" y="398" width="145" height="36" rx="18" fill="#fed7aa" fill-opacity="0.35"/>
  <text x="126" y="422" font-family="Segoe UI, Arial, sans-serif" font-size="16" font-weight="700" fill="#ffffff">Ad Spend</text>

  <rect x="268" y="398" width="145" height="36" rx="18" fill="#fed7aa" fill-opacity="0.25"/>
  <text x="286" y="422" font-family="Segoe UI, Arial, sans-serif" font-size="16" font-weight="700" fill="#ffffff">ROAS</text>

  <rect x="428" y="398" width="145" height="36" rx="18" fill="#fed7aa" fill-opacity="0.18"/>
  <text x="446" y="422" font-family="Segoe UI, Arial, sans-serif" font-size="16" font-weight="700" fill="#ffffff">Paid Acquisition</text>

  <rect x="650" y="130" width="380" height="300" rx="16" fill="#2a180f" stroke="#fdba74" stroke-opacity="0.5"/>
<rect x="680" y="168" width="150" height="94" rx="12" fill="#fb923c" fill-opacity="0.7"/>
<text x="710" y="223" font-family="Segoe UI, Arial, sans-serif" font-size="34" font-weight="800" fill="#fff">AD</text>
<rect x="850" y="168" width="150" height="94" rx="12" fill="#f59e0b" fill-opacity="0.7"/>
<text x="870" y="223" font-family="Segoe UI, Arial, sans-serif" font-size="30" font-weight="800" fill="#fff">BID</text>
<rect x="680" y="286" width="320" height="96" rx="12" fill="#fff" fill-opacity="0.13"/>
<rect x="706" y="312" width="100" height="14" rx="7" fill="#fff" fill-opacity="0.75"/>
<rect x="706" y="336" width="260" height="10" rx="5" fill="#fff" fill-opacity="0.5"/>
<rect x="706" y="355" width="180" height="10" rx="5" fill="#fff" fill-opacity="0.5"/>
</svg>
