<svg xmlns="http://www.w3.org/2000/svg" width="1200" height="675" viewBox="0 0 1200 675" role="img" aria-label="Predictive Analytics Impact illustration">
  <defs>
    <linearGradient id="bg" x1="0" y1="0" x2="1" y2="1">
      <stop offset="0%" stop-color="#132a13"/>
      <stop offset="100%" stop-color="#2d6a4f"/>
    </linearGradient>
  </defs>

  <rect width="1200" height="675" fill="url(#bg)"/>
  <circle cx="120" cy="110" r="220" fill="#ffffff" fill-opacity="0.05"/>
  <circle cx="1080" cy="580" r="180" fill="#ffffff" fill-opacity="0.05"/>
  <rect x="70" y="85" width="500" height="505" rx="26" fill="#ffffff" fill-opacity="0.07"/>

  <text x="108" y="160" font-family="Segoe UI, Arial, sans-serif" font-size="26" font-weight="700" fill="#dbeafe" opacity="0.95">MAGATH CONSULTANTS</text>
  <text x="108" y="236" font-family="Segoe UI, Arial, sans-serif" font-size="52" font-weight="800" fill="#ffffff">Predictive Analytics</text>
  <text x="108" y="296" font-family="Segoe UI, Arial, sans-serif" font-size="52" font-weight="800" fill="#ffffff">Impact</text>
  <text x="108" y="350" font-family="Segoe UI, Arial, sans-serif" font-size="24" font-weight="500" fill="#dbeafe">Business and delivery outcomes</text>

  <rect x="108" y="398" width="145" height="36" rx="18" fill="#95d5b2" fill-opacity="0.35"/>
  <text x="126" y="422" font-family="Segoe UI, Arial, sans-serif" font-size="16" font-weight="700" fill="#ffffff">Forecasting</text>

  <rect x="268" y="398" width="145" height="36" rx="18" fill="#95d5b2" fill-opacity="0.25"/>
  <text x="286" y="422" font-family="Segoe UI, Arial, sans-serif" font-size="16" font-weight="700" fill="#ffffff">Insights</text>

  <rect x="428" y="398" width="145" height="36" rx="18" fill="#95d5b2" fill-opacity="0.18"/>
  <text x="446" y="422" font-family="Segoe UI, Arial, sans-serif" font-size="16" font-weight="700" fill="#ffffff">Data Models</text>

  <rect x="650" y="130" width="380" height="300" rx="16" fill="#10281f" stroke="#95d5b2" stroke-opacity="0.55"/>
<path d="M700 360 L760 320 L820 340 L900 275 L970 300" fill="none" stroke="#86efac" stroke-width="4"/>
<circle cx="760" cy="320" r="7" fill="#bbf7d0"/>
<circle cx="820" cy="340" r="7" fill="#bbf7d0"/>
<circle cx="900" cy="275" r="7" fill="#bbf7d0"/>
<rect x="685" y="170" width="310" height="90" rx="12" fill="#fff" fill-opacity="0.12"/>
<rect x="710" y="198" width="190" height="12" rx="6" fill="#fff" fill-opacity="0.72"/>
<rect x="710" y="220" width="140" height="10" rx="5" fill="#fff" fill-opacity="0.48"/>
</svg>
