<svg xmlns="http://www.w3.org/2000/svg" width="1200" height="675" viewBox="0 0 1200 675" role="img" aria-label="SaaS Platforms Impact illustration">
  <defs>
    <linearGradient id="bg" x1="0" y1="0" x2="1" y2="1">
      <stop offset="0%" stop-color="#1f2937"/>
      <stop offset="100%" stop-color="#0369a1"/>
    </linearGradient>
  </defs>

  <rect width="1200" height="675" fill="url(#bg)"/>
  <circle cx="120" cy="110" r="220" fill="#ffffff" fill-opacity="0.05"/>
  <circle cx="1080" cy="580" r="180" fill="#ffffff" fill-opacity="0.05"/>
  <rect x="70" y="85" width="500" height="505" rx="26" fill="#ffffff" fill-opacity="0.07"/>

  <text x="108" y="160" font-family="Segoe UI, Arial, sans-serif" font-size="26" font-weight="700" fill="#dbeafe" opacity="0.95">MAGATH CONSULTANTS</text>
  <text x="108" y="236" font-family="Segoe UI, Arial, sans-serif" font-size="52" font-weight="800" fill="#ffffff">SaaS Platforms Impact</text>
  <text x="108" y="296" font-family="Segoe UI, Arial, sans-serif" font-size="52" font-weight="800" fill="#ffffff"></text>
  <text x="108" y="350" font-family="Segoe UI, Arial, sans-serif" font-size="24" font-weight="500" fill="#dbeafe">Business and delivery outcomes</text>

  <rect x="108" y="398" width="145" height="36" rx="18" fill="#7dd3fc" fill-opacity="0.35"/>
  <text x="126" y="422" font-family="Segoe UI, Arial, sans-serif" font-size="16" font-weight="700" fill="#ffffff">SaaS</text>

  <rect x="268" y="398" width="145" height="36" rx="18" fill="#7dd3fc" fill-opacity="0.25"/>
  <text x="286" y="422" font-family="Segoe UI, Arial, sans-serif" font-size="16" font-weight="700" fill="#ffffff">Tenant Ready</text>

  <rect x="428" y="398" width="145" height="36" rx="18" fill="#7dd3fc" fill-opacity="0.18"/>
  <text x="446" y="422" font-family="Segoe UI, Arial, sans-serif" font-size="16" font-weight="700" fill="#ffffff">Scale</text>

  <rect x="650" y="130" width="380" height="300" rx="16" fill="#0c2032" stroke="#7dd3fc" stroke-opacity="0.55"/>
<rect x="685" y="170" width="310" height="210" rx="12" fill="#fff" fill-opacity="0.12"/>
<rect x="710" y="200" width="130" height="18" rx="9" fill="#fff" fill-opacity="0.7"/>
<rect x="710" y="235" width="260" height="70" rx="10" fill="#0ea5e9" fill-opacity="0.45"/>
<rect x="710" y="320" width="80" height="36" rx="8" fill="#34d399" fill-opacity="0.65"/>
<rect x="805" y="320" width="80" height="36" rx="8" fill="#38bdf8" fill-opacity="0.65"/>
<rect x="900" y="320" width="70" height="36" rx="8" fill="#93c5fd" fill-opacity="0.65"/>
</svg>
