<svg xmlns="http://www.w3.org/2000/svg" width="1200" height="675" viewBox="0 0 1200 675" role="img" aria-label="SEO is No Longer Enough Case Study illustration">
  <defs>
    <linearGradient id="bg" x1="0" y1="0" x2="1" y2="1">
      <stop offset="0%" stop-color="#111827"/>
      <stop offset="100%" stop-color="#0f766e"/>
    </linearGradient>
  </defs>

  <rect width="1200" height="675" fill="url(#bg)"/>
  <circle cx="120" cy="110" r="220" fill="#ffffff" fill-opacity="0.05"/>
  <circle cx="1080" cy="580" r="180" fill="#ffffff" fill-opacity="0.05"/>
  <rect x="70" y="85" width="500" height="505" rx="26" fill="#ffffff" fill-opacity="0.07"/>

  <text x="108" y="160" font-family="Segoe UI, Arial, sans-serif" font-size="26" font-weight="700" fill="#dbeafe" opacity="0.95">MAGATH CONSULTANTS</text>
  <text x="108" y="236" font-family="Segoe UI, Arial, sans-serif" font-size="52" font-weight="800" fill="#ffffff">SEO is No Longer Enough</text>
  <text x="108" y="296" font-family="Segoe UI, Arial, sans-serif" font-size="52" font-weight="800" fill="#ffffff">Case Study</text>
  <text x="108" y="350" font-family="Segoe UI, Arial, sans-serif" font-size="24" font-weight="500" fill="#dbeafe">Implementation scenario and architecture</text>

  <rect x="108" y="398" width="145" height="36" rx="18" fill="#99f6e4" fill-opacity="0.35"/>
  <text x="126" y="422" font-family="Segoe UI, Arial, sans-serif" font-size="16" font-weight="700" fill="#ffffff">Beyond SEO</text>

  <rect x="268" y="398" width="145" height="36" rx="18" fill="#99f6e4" fill-opacity="0.25"/>
  <text x="286" y="422" font-family="Segoe UI, Arial, sans-serif" font-size="16" font-weight="700" fill="#ffffff">AEO</text>

  <rect x="428" y="398" width="145" height="36" rx="18" fill="#99f6e4" fill-opacity="0.18"/>
  <text x="446" y="422" font-family="Segoe UI, Arial, sans-serif" font-size="16" font-weight="700" fill="#ffffff">Experience Signals</text>

  <rect x="650" y="130" width="380" height="300" rx="16" fill="#0d1f2d" stroke="#99f6e4" stroke-opacity="0.5"/>
<rect x="680" y="165" width="320" height="36" rx="18" fill="#ffffff" fill-opacity="0.85"/>
<circle cx="710" cy="183" r="9" fill="none" stroke="#0f766e" stroke-width="3"/>
<line x1="717" y1="190" x2="724" y2="197" stroke="#0f766e" stroke-width="3"/>
<rect x="735" y="177" width="190" height="12" rx="6" fill="#0f766e" fill-opacity="0.45"/>
<rect x="680" y="223" width="320" height="70" rx="10" fill="#14b8a6" fill-opacity="0.35"/>
<rect x="700" y="242" width="220" height="12" rx="6" fill="#ffffff" fill-opacity="0.8"/>
<rect x="700" y="263" width="180" height="10" rx="5" fill="#ffffff" fill-opacity="0.58"/>
<path d="M700 350 L760 320 L820 330 L900 285 L960 300" fill="none" stroke="#5eead4" stroke-width="4"/>
</svg>
