<svg xmlns="http://www.w3.org/2000/svg" width="1200" height="675" viewBox="0 0 1200 675" role="img" aria-label="Social Media Marketing Impact illustration">
  <defs>
    <linearGradient id="bg" x1="0" y1="0" x2="1" y2="1">
      <stop offset="0%" stop-color="#172554"/>
      <stop offset="100%" stop-color="#7c3aed"/>
    </linearGradient>
  </defs>

  <rect width="1200" height="675" fill="url(#bg)"/>
  <circle cx="120" cy="110" r="220" fill="#ffffff" fill-opacity="0.05"/>
  <circle cx="1080" cy="580" r="180" fill="#ffffff" fill-opacity="0.05"/>
  <rect x="70" y="85" width="500" height="505" rx="26" fill="#ffffff" fill-opacity="0.07"/>

  <text x="108" y="160" font-family="Segoe UI, Arial, sans-serif" font-size="26" font-weight="700" fill="#dbeafe" opacity="0.95">MAGATH CONSULTANTS</text>
  <text x="108" y="236" font-family="Segoe UI, Arial, sans-serif" font-size="52" font-weight="800" fill="#ffffff">Social Media Marketing</text>
  <text x="108" y="296" font-family="Segoe UI, Arial, sans-serif" font-size="52" font-weight="800" fill="#ffffff">Impact</text>
  <text x="108" y="350" font-family="Segoe UI, Arial, sans-serif" font-size="24" font-weight="500" fill="#dbeafe">Business and delivery outcomes</text>

  <rect x="108" y="398" width="145" height="36" rx="18" fill="#ddd6fe" fill-opacity="0.35"/>
  <text x="126" y="422" font-family="Segoe UI, Arial, sans-serif" font-size="16" font-weight="700" fill="#ffffff">Social Reach</text>

  <rect x="268" y="398" width="145" height="36" rx="18" fill="#ddd6fe" fill-opacity="0.25"/>
  <text x="286" y="422" font-family="Segoe UI, Arial, sans-serif" font-size="16" font-weight="700" fill="#ffffff">Content</text>

  <rect x="428" y="398" width="145" height="36" rx="18" fill="#ddd6fe" fill-opacity="0.18"/>
  <text x="446" y="422" font-family="Segoe UI, Arial, sans-serif" font-size="16" font-weight="700" fill="#ffffff">Engagement</text>

  <rect x="650" y="130" width="380" height="300" rx="16" fill="#1f1947" stroke="#ddd6fe" stroke-opacity="0.5"/>
<rect x="680" y="165" width="100" height="100" rx="12" fill="#7c3aed" fill-opacity="0.75"/>
<circle cx="730" cy="205" r="26" fill="#c4b5fd"/>
<rect x="800" y="165" width="200" height="100" rx="12" fill="#ffffff" fill-opacity="0.13"/>
<rect x="825" y="190" width="150" height="12" rx="6" fill="#fff" fill-opacity="0.7"/>
<rect x="825" y="214" width="120" height="10" rx="5" fill="#fff" fill-opacity="0.5"/>
<rect x="680" y="286" width="320" height="110" rx="12" fill="#ffffff" fill-opacity="0.11"/>
<rect x="705" y="314" width="70" height="58" rx="10" fill="#8b5cf6" fill-opacity="0.7"/>
<rect x="790" y="314" width="70" height="58" rx="10" fill="#6366f1" fill-opacity="0.7"/>
<rect x="875" y="314" width="70" height="58" rx="10" fill="#a855f7" fill-opacity="0.7"/>
</svg>
