<svg width="960" height="640" viewBox="0 0 960 640" fill="none" xmlns="http://www.w3.org/2000/svg">
  <defs>
    <linearGradient id="c1" x1="70" y1="40" x2="890" y2="600" gradientUnits="userSpaceOnUse">
      <stop stop-color="#091C45"/>
      <stop offset="1" stop-color="#1D56BD"/>
    </linearGradient>
    <linearGradient id="c2" x1="210" y1="220" x2="740" y2="460" gradientUnits="userSpaceOnUse">
      <stop stop-color="#FFD166"/>
      <stop offset="1" stop-color="#F39C12"/>
    </linearGradient>
  </defs>

  <rect x="40" y="40" width="880" height="560" rx="34" fill="url(#c1)"/>

  <rect x="110" y="125" width="740" height="390" rx="26" fill="#113271"/>

  <rect x="150" y="170" width="320" height="26" rx="13" fill="#2C5CAA"/>
  <rect x="150" y="214" width="250" height="20" rx="10" fill="#2C5CAA"/>

  <circle cx="700" cy="230" r="72" fill="url(#c2)"/>
  <circle cx="700" cy="212" r="22" fill="#1B3F84"/>
  <rect x="665" y="244" width="70" height="38" rx="19" fill="#1B3F84"/>

  <circle cx="250" cy="370" r="56" fill="#1E4A99"/>
  <circle cx="250" cy="356" r="18" fill="#DCE8FF"/>
  <rect x="222" y="382" width="56" height="30" rx="15" fill="#DCE8FF"/>

  <circle cx="430" cy="370" r="56" fill="#1E4A99"/>
  <circle cx="430" cy="356" r="18" fill="#DCE8FF"/>
  <rect x="402" y="382" width="56" height="30" rx="15" fill="#DCE8FF"/>

  <circle cx="610" cy="370" r="56" fill="#1E4A99"/>
  <circle cx="610" cy="356" r="18" fill="#DCE8FF"/>
  <rect x="582" y="382" width="56" height="30" rx="15" fill="#DCE8FF"/>

  <path d="M306 370H374" stroke="#F3C56A" stroke-width="8" stroke-linecap="round"/>
  <path d="M486 370H554" stroke="#F3C56A" stroke-width="8" stroke-linecap="round"/>
</svg>
