<svg xmlns="http://www.w3.org/2000/svg" width="1200" height="675" viewBox="0 0 1200 675" role="img" aria-label="Technology Migration case study illustration">
  <defs>
    <linearGradient id="bg" x1="0" y1="0" x2="1" y2="1">
      <stop offset="0%" stop-color="#1f2937"/>
      <stop offset="100%" stop-color="#6d28d9"/>
    </linearGradient>
  </defs>

  <rect width="1200" height="675" fill="url(#bg)"/>
  <circle cx="120" cy="110" r="220" fill="#ffffff" fill-opacity="0.05"/>
  <circle cx="1080" cy="580" r="180" fill="#ffffff" fill-opacity="0.05"/>
  <rect x="70" y="85" width="500" height="505" rx="26" fill="#ffffff" fill-opacity="0.07"/>

  <text x="108" y="160" font-family="Segoe UI, Arial, sans-serif" font-size="26" font-weight="700" fill="#ede9fe" opacity="0.95">MAGATH CONSULTANTS</text>
  <text x="108" y="236" font-family="Segoe UI, Arial, sans-serif" font-size="52" font-weight="800" fill="#ffffff">Technology Migration</text>
  <text x="108" y="296" font-family="Segoe UI, Arial, sans-serif" font-size="52" font-weight="800" fill="#ffffff">Case Study</text>
  <text x="108" y="350" font-family="Segoe UI, Arial, sans-serif" font-size="24" font-weight="500" fill="#ede9fe">Multi-cloud transition with zero-disruption cutover</text>

  <rect x="108" y="398" width="145" height="36" rx="18" fill="#c4b5fd" fill-opacity="0.35"/>
  <text x="126" y="422" font-family="Segoe UI, Arial, sans-serif" font-size="16" font-weight="700" fill="#ffffff">ERP</text>

  <rect x="268" y="398" width="145" height="36" rx="18" fill="#c4b5fd" fill-opacity="0.25"/>
  <text x="286" y="422" font-family="Segoe UI, Arial, sans-serif" font-size="16" font-weight="700" fill="#ffffff">Cloud</text>

  <rect x="428" y="398" width="145" height="36" rx="18" fill="#c4b5fd" fill-opacity="0.18"/>
  <text x="446" y="422" font-family="Segoe UI, Arial, sans-serif" font-size="16" font-weight="700" fill="#ffffff">Validation</text>

  <rect x="650" y="135" width="382" height="305" rx="18" fill="#241246" stroke="#ddd6fe" stroke-opacity="0.45"/>
  <rect x="690" y="185" width="120" height="170" rx="14" fill="#ffffff" fill-opacity="0.11"/>
  <rect x="870" y="185" width="120" height="170" rx="14" fill="#ffffff" fill-opacity="0.11"/>
  <rect x="722" y="215" width="56" height="12" rx="6" fill="#ffffff" fill-opacity="0.72"/>
  <rect x="902" y="215" width="56" height="12" rx="6" fill="#ffffff" fill-opacity="0.72"/>
  <rect x="722" y="245" width="56" height="72" rx="8" fill="#8b5cf6" fill-opacity="0.45"/>
  <rect x="902" y="245" width="56" height="72" rx="8" fill="#a78bfa" fill-opacity="0.45"/>
  <path d="M832 270 H862" stroke="#ddd6fe" stroke-width="6" stroke-linecap="round"/>
  <path d="M850 254 L866 270 L850 286" fill="none" stroke="#ddd6fe" stroke-width="6" stroke-linecap="round" stroke-linejoin="round"/>
  <rect x="718" y="382" width="252" height="10" rx="5" fill="#ffffff" fill-opacity="0.36"/>
</svg>