<svg xmlns="http://www.w3.org/2000/svg" width="1200" height="675" viewBox="0 0 1200 675" role="img" aria-label="Technology Roadmap illustration">
  <defs>
    <linearGradient id="bg" x1="0" y1="0" x2="1" y2="1">
      <stop offset="0%" stop-color="#1e293b"/>
      <stop offset="100%" stop-color="#2563eb"/>
    </linearGradient>
  </defs>

  <rect width="1200" height="675" fill="url(#bg)"/>
  <circle cx="120" cy="110" r="220" fill="#ffffff" fill-opacity="0.05"/>
  <circle cx="1080" cy="580" r="180" fill="#ffffff" fill-opacity="0.05"/>
  <rect x="70" y="85" width="500" height="505" rx="26" fill="#ffffff" fill-opacity="0.07"/>

  <text x="108" y="160" font-family="Segoe UI, Arial, sans-serif" font-size="26" font-weight="700" fill="#dbeafe" opacity="0.95">MAGATH CONSULTANTS</text>
  <text x="108" y="236" font-family="Segoe UI, Arial, sans-serif" font-size="52" font-weight="800" fill="#ffffff">Technology Roadmap</text>
  <text x="108" y="296" font-family="Segoe UI, Arial, sans-serif" font-size="52" font-weight="800" fill="#ffffff"></text>
  <text x="108" y="350" font-family="Segoe UI, Arial, sans-serif" font-size="24" font-weight="500" fill="#dbeafe">Service-specific visual concept</text>

  <rect x="108" y="398" width="145" height="36" rx="18" fill="#93c5fd" fill-opacity="0.35"/>
  <text x="126" y="422" font-family="Segoe UI, Arial, sans-serif" font-size="16" font-weight="700" fill="#ffffff">Roadmap</text>

  <rect x="268" y="398" width="145" height="36" rx="18" fill="#93c5fd" fill-opacity="0.25"/>
  <text x="286" y="422" font-family="Segoe UI, Arial, sans-serif" font-size="16" font-weight="700" fill="#ffffff">Milestones</text>

  <rect x="428" y="398" width="145" height="36" rx="18" fill="#93c5fd" fill-opacity="0.18"/>
  <text x="446" y="422" font-family="Segoe UI, Arial, sans-serif" font-size="16" font-weight="700" fill="#ffffff">Strategy</text>

  <rect x="650" y="130" width="380" height="300" rx="16" fill="#0f2036" stroke="#93c5fd" stroke-opacity="0.5"/>
<path d="M700 360 C740 260 790 260 830 360 C870 260 920 260 960 360" fill="none" stroke="#93c5fd" stroke-width="4"/>
<circle cx="700" cy="360" r="12" fill="#60a5fa"/>
<circle cx="830" cy="360" r="12" fill="#3b82f6"/>
<circle cx="960" cy="360" r="12" fill="#2563eb"/>
<rect x="675" y="170" width="120" height="56" rx="10" fill="#1d4ed8" fill-opacity="0.7"/>
<rect x="810" y="170" width="120" height="56" rx="10" fill="#2563eb" fill-opacity="0.7"/>
<rect x="945" y="170" width="60" height="56" rx="10" fill="#60a5fa" fill-opacity="0.7"/>
</svg>
