<svg xmlns="http://www.w3.org/2000/svg" width="1200" height="675" viewBox="0 0 1200 675" role="img" aria-label="Technology Migration illustration">
  <defs>
    <linearGradient id="bg" x1="0" y1="0" x2="1" y2="1">
      <stop offset="0%" stop-color="#111827"/>
      <stop offset="100%" stop-color="#7c3aed"/>
    </linearGradient>
  </defs>

  <rect width="1200" height="675" fill="url(#bg)"/>
  <circle cx="120" cy="110" r="220" fill="#ffffff" fill-opacity="0.05"/>
  <circle cx="1080" cy="580" r="180" fill="#ffffff" fill-opacity="0.05"/>
  <rect x="70" y="85" width="500" height="505" rx="26" fill="#ffffff" fill-opacity="0.07"/>

  <text x="108" y="160" font-family="Segoe UI, Arial, sans-serif" font-size="26" font-weight="700" fill="#ede9fe" opacity="0.95">MAGATH CONSULTANTS</text>
  <text x="108" y="236" font-family="Segoe UI, Arial, sans-serif" font-size="52" font-weight="800" fill="#ffffff">Technology Migration</text>
  <text x="108" y="296" font-family="Segoe UI, Arial, sans-serif" font-size="52" font-weight="800" fill="#ffffff"></text>
  <text x="108" y="350" font-family="Segoe UI, Arial, sans-serif" font-size="24" font-weight="500" fill="#ede9fe">Legacy systems to modern platforms with governed cutover</text>

  <rect x="108" y="398" width="145" height="36" rx="18" fill="#c4b5fd" fill-opacity="0.35"/>
  <text x="126" y="422" font-family="Segoe UI, Arial, sans-serif" font-size="16" font-weight="700" fill="#ffffff">Legacy</text>

  <rect x="268" y="398" width="145" height="36" rx="18" fill="#c4b5fd" fill-opacity="0.25"/>
  <text x="286" y="422" font-family="Segoe UI, Arial, sans-serif" font-size="16" font-weight="700" fill="#ffffff">Migration</text>

  <rect x="428" y="398" width="145" height="36" rx="18" fill="#c4b5fd" fill-opacity="0.18"/>
  <text x="446" y="422" font-family="Segoe UI, Arial, sans-serif" font-size="16" font-weight="700" fill="#ffffff">Cutover</text>

  <rect x="648" y="135" width="382" height="305" rx="18" fill="#1b1037" stroke="#ddd6fe" stroke-opacity="0.45"/>
  <rect x="688" y="182" width="112" height="160" rx="14" fill="#ffffff" fill-opacity="0.12"/>
  <rect x="878" y="182" width="112" height="160" rx="14" fill="#ffffff" fill-opacity="0.12"/>
  <rect x="720" y="214" width="48" height="12" rx="6" fill="#ffffff" fill-opacity="0.72"/>
  <rect x="910" y="214" width="48" height="12" rx="6" fill="#ffffff" fill-opacity="0.72"/>
  <path d="M820 262 L874 262" stroke="#ddd6fe" stroke-width="6" stroke-linecap="round"/>
  <path d="M854 242 L874 262 L854 282" fill="none" stroke="#ddd6fe" stroke-width="6" stroke-linecap="round" stroke-linejoin="round"/>
  <rect x="720" y="244" width="48" height="54" rx="8" fill="#8b5cf6" fill-opacity="0.55"/>
  <rect x="910" y="244" width="48" height="54" rx="8" fill="#a78bfa" fill-opacity="0.55"/>
  <rect x="720" y="360" width="238" height="10" rx="5" fill="#ffffff" fill-opacity="0.4"/>
</svg>